<?xml version="1.0" standalone="no"?>
<!DOCTYPE svg PUBLIC "-//W3C//DTD SVG 20010904//EN"
 "http://www.w3.org/TR/2001/REC-SVG-20010904/DTD/svg10.dtd">
<svg version="1.0" xmlns="http://www.w3.org/2000/svg"
 width="595.000000pt" height="595.000000pt" viewBox="0 0 595.000000 595.000000"
 preserveAspectRatio="xMidYMid meet">
<metadata>
Created by potrace 1.14, written by Peter Selinger 2001-2017
</metadata>
<g transform="translate(0.000000,595.000000) scale(0.100000,-0.100000)"
fill="#000000" stroke="none">
<path d="M866 5525 c-3 -9 -3 -22 1 -27 3 -7 1 -8 -5 -4 -7 4 -12 2 -12 -3 0
-6 -5 -11 -11 -11 -8 0 -7 5 1 15 7 9 10 18 6 22 -3 3 -6 1 -6 -6 0 -8 -6 -11
-16 -7 -10 4 -13 2 -8 -6 5 -7 0 -9 -14 -6 -23 6 -45 -12 -40 -32 2 -7 -5 -14
-14 -16 -10 -2 -26 -6 -35 -8 -10 -2 -23 0 -29 5 -7 5 -11 3 -11 -6 0 -8 4
-12 9 -9 4 3 8 0 8 -6 0 -6 5 -8 12 -4 6 4 8 3 5 -4 -4 -5 -17 -8 -29 -4 -16
4 -19 2 -13 -9 7 -11 5 -11 -10 1 -17 14 -18 14 -7 -6 9 -16 8 -21 -3 -21 -8
0 -12 3 -10 7 2 4 -2 7 -10 7 -8 0 -14 -3 -13 -6 2 -19 -3 -31 -11 -26 -5 3
-13 0 -17 -6 -4 -7 -3 -9 4 -5 6 3 13 2 16 -3 3 -5 -1 -12 -10 -15 -8 -3 -12
-10 -9 -16 3 -5 1 -10 -5 -10 -7 0 -10 6 -7 13 9 24 -8 40 -23 22 -11 -13 -10
-14 6 -8 16 6 17 5 6 -9 -9 -11 -10 -18 -2 -23 15 -9 2 -25 -15 -19 -8 4 -12
10 -9 15 3 5 -2 6 -12 2 -15 -5 -15 -7 0 -15 12 -7 14 -13 6 -29 -6 -10 -16
-19 -23 -19 -7 0 -6 4 3 10 8 5 10 10 4 10 -15 0 -37 -27 -27 -33 4 -2 16 -3
26 -2 9 2 15 -1 12 -5 -3 -5 -19 -7 -35 -5 l-30 4 27 -25 c22 -19 23 -22 6
-12 -18 10 -25 10 -35 -1 -11 -10 -10 -12 6 -9 10 2 21 -4 23 -12 4 -13 3 -13
-6 0 -8 11 -11 12 -11 2 0 -7 -4 -11 -8 -8 -4 2 -14 1 -22 -5 -11 -6 -12 -9
-2 -9 7 0 10 -5 6 -12 -4 -7 -3 -8 5 -4 6 4 8 12 5 18 -4 7 -2 8 4 4 16 -10 3
-36 -18 -36 -11 0 -22 -5 -26 -12 -5 -7 -2 -9 8 -6 8 4 21 2 29 -4 11 -8 10
-9 -5 -4 -13 5 -17 2 -13 -9 4 -8 1 -17 -5 -21 -7 -4 -8 -3 -4 4 4 7 2 12 -3
12 -8 0 -11 -617 -11 -2080 0 -1970 1 -2080 18 -2081 9 -1 20 -1 25 0 4 1 2
-8 -5 -18 -7 -11 -16 -17 -21 -14 -5 3 -3 9 4 14 10 6 10 9 2 9 -6 0 -14 -4
-17 -9 -7 -11 18 -33 27 -24 4 3 7 0 7 -8 0 -12 2 -11 11 1 9 13 10 13 6 0 -2
-8 -13 -14 -23 -12 -18 2 -18 2 1 -10 24 -14 49 -38 40 -38 -3 0 -17 7 -30 16
-15 10 -25 12 -25 5 0 -6 7 -11 15 -11 9 0 18 -7 22 -16 3 -8 12 -13 19 -10 8
3 11 0 7 -9 -3 -8 -10 -12 -16 -8 -6 3 -7 1 -3 -6 6 -9 11 -9 22 0 17 14 19
-2 2 -20 -11 -11 -10 -12 0 -6 8 4 13 2 11 -6 -3 -29 2 -39 19 -39 16 1 16 2
-1 14 -10 8 -15 16 -10 19 4 3 17 -7 27 -21 11 -14 14 -22 8 -18 -7 4 -12 2
-12 -3 0 -10 14 -15 34 -12 5 1 6 -5 2 -14 -5 -13 -1 -15 17 -10 19 5 20 5 4
-5 -14 -9 -16 -15 -6 -26 6 -7 15 -12 19 -9 8 5 26 -33 22 -48 -1 -4 3 -7 9
-7 6 0 9 6 6 14 -3 8 1 22 9 33 14 17 14 16 4 -5 -9 -18 -8 -22 6 -22 13 0 14
-3 5 -14 -9 -11 -9 -16 1 -22 7 -4 10 -4 6 0 -4 5 -2 14 4 20 9 10 15 9 28 -3
9 -9 15 -22 12 -28 -4 -12 9 -17 36 -14 6 1 12 -7 12 -18 0 -11 4 -22 9 -25 5
-4 7 4 4 16 -4 19 -3 20 6 8 6 -8 11 -10 11 -5 0 6 4 4 9 -4 6 -10 13 -10 28
-3 15 8 20 8 20 -3 0 -7 -6 -11 -13 -8 -6 2 -14 0 -18 -5 -6 -10 30 -9 40 1
11 10 24 8 24 -4 0 -5 -4 -7 -10 -4 -16 10 -11 -1 7 -16 11 -10 14 -10 9 -1
-4 7 -1 12 9 12 9 0 13 -5 10 -10 -11 -17 7 -11 21 8 13 16 14 16 8 -1 -6 -16
89 -17 2036 -17 2018 1 2043 1 2068 20 13 11 31 20 39 20 8 0 11 5 7 11 -4 7
-1 10 7 7 8 -3 13 -11 11 -17 -1 -7 2 -10 7 -6 6 3 7 13 4 23 -5 14 -3 14 16
-3 l23 -20 19 24 c17 20 21 22 37 10 15 -12 15 -12 5 1 -9 12 -7 19 12 36 12
11 30 19 39 18 15 -2 15 0 4 13 -10 13 -10 17 0 20 6 3 9 10 6 15 -4 7 -2 8 4
4 6 -4 8 -14 5 -23 -4 -11 -3 -14 5 -9 7 4 12 15 12 24 0 9 7 26 15 36 18 24
20 13 3 -17 -10 -20 -10 -21 5 -8 10 7 17 20 17 27 0 8 5 14 11 14 5 0 7 -5 3
-12 -4 -6 -3 -8 4 -5 5 4 8 17 4 29 -3 14 -2 19 6 14 7 -4 12 -2 12 3 0 6 -4
11 -10 11 -5 0 -10 5 -10 12 0 6 3 8 7 5 3 -4 11 -2 18 3 8 7 12 5 12 -5 0 -8
-4 -12 -9 -9 -4 3 -5 -2 -2 -11 8 -19 13 -15 19 13 2 13 -3 26 -13 32 -9 5
-12 10 -7 10 6 0 22 -8 35 -17 20 -13 22 -14 13 -2 -7 9 -9 20 -5 24 4 5 0 5
-8 0 -8 -4 -5 2 8 14 12 12 22 26 22 32 0 6 5 7 12 3 7 -4 8 -3 4 5 -6 9 -12
9 -24 -1 -15 -11 -15 -11 -5 3 7 9 11 18 8 21 -3 3 2 11 11 18 13 12 17 11 25
-1 5 -8 9 -9 9 -3 0 5 -5 15 -12 22 -9 9 -7 13 6 18 15 6 15 7 -1 20 -17 12
-16 13 5 9 12 -2 20 0 17 5 -3 4 -2 10 2 13 5 2 3 3 -4 1 -6 -1 -19 4 -30 12
-17 14 -17 15 3 5 33 -16 50 6 30 38 -6 10 -5 12 3 7 8 -5 11 486 11 2024 0
2023 0 2031 -20 2025 -12 -4 -20 -2 -20 5 0 6 5 8 10 5 6 -3 10 -1 10 5 0 6 5
8 13 4 9 -6 9 -5 0 8 -7 8 -9 18 -5 22 4 4 1 6 -7 4 -7 -2 -16 3 -19 11 -3 9
0 11 9 6 11 -6 11 -5 2 5 -6 7 -9 20 -6 29 4 13 3 14 -5 1 -6 -8 -8 -18 -5
-24 3 -5 1 -6 -6 -2 -6 4 -9 11 -6 16 3 5 1 11 -5 15 -5 3 -10 12 -10 18 0 8
3 8 9 -2 5 -7 11 -9 14 -4 3 5 -3 14 -14 21 -14 9 -19 9 -19 0 0 -6 -2 -9 -5
-6 -3 3 -3 13 1 22 5 14 9 14 22 4 14 -12 14 -11 1 10 -8 12 -17 22 -22 22 -4
0 -5 -4 -2 -10 3 -5 1 -10 -6 -10 -6 0 -9 8 -6 20 3 12 -3 29 -15 43 -11 12
-17 17 -14 10 4 -6 3 -14 -2 -17 -4 -2 -9 5 -9 17 -1 12 -11 29 -22 38 -11 9
-17 20 -13 25 4 5 -1 2 -10 -5 -21 -15 -23 -9 -7 21 7 12 7 18 1 14 -6 -3 -12
-3 -15 1 -2 5 -2 3 -1 -4 2 -7 -2 -15 -8 -19 -7 -4 -8 -3 -4 4 4 7 2 12 -4 12
-6 0 -9 4 -6 9 3 5 -1 12 -10 15 -9 3 -12 11 -8 18 5 9 3 9 -9 -1 -9 -7 -17
-10 -17 -7 0 4 -10 1 -22 -5 -23 -12 -23 -12 -3 8 13 13 22 16 27 9 4 -6 6 -1
5 11 -1 21 -2 21 -19 6 -17 -15 -18 -15 -18 5 0 12 -5 22 -11 22 -5 0 -7 -4
-4 -10 3 -6 -1 -7 -10 -4 -8 4 -14 12 -13 18 2 6 -1 12 -6 13 -5 1 -13 7 -17
15 -5 8 -9 9 -9 2 0 -7 -8 -15 -17 -19 -15 -5 -16 -4 -5 6 15 16 16 29 1 29
-5 0 -7 -4 -4 -10 3 -5 -1 -10 -10 -10 -9 0 -14 4 -11 8 2 4 0 14 -6 22 -8 12
-9 12 -4 -2 3 -10 1 -20 -4 -23 -6 -4 -10 1 -10 10 0 9 -5 13 -10 10 -6 -4 -7
-11 -4 -17 4 -7 2 -8 -4 -4 -6 4 -9 13 -5 21 4 13 -2 17 -23 14 -4 0 -11 5
-16 13 -8 10 -9 10 -5 -2 2 -8 10 -14 16 -13 6 2 11 -1 11 -7 0 -14 -37 -7
-53 10 -9 10 -9 11 1 6 6 -4 12 -2 12 3 0 16 -4068 15 -4086 0 -11 -9 -14 -8
-14 0 0 7 -4 10 -10 6 -5 -3 -7 -13 -4 -23 3 -9 -1 -6 -9 7 -12 20 -15 21 -21
6z m-76 -51 c0 -8 -5 -12 -10 -9 -6 4 -8 11 -5 16 9 14 15 11 15 -7z m4392
-23 c-4 -10 -7 -11 -10 -3 -2 7 -9 9 -14 6 -6 -4 -8 -3 -5 3 10 16 36 11 29
-6z m189 -165 c-6 -7 -7 -17 -3 -21 4 -5 1 -5 -6 -1 -9 6 -10 11 -3 20 6 7 7
17 3 21 -4 5 -1 5 6 1 9 -6 10 -11 3 -20z m53 -58 c-9 -14 -23 2 -17 18 4 12
8 13 14 3 4 -7 5 -17 3 -21z m81 -168 c3 -5 1 -10 -4 -10 -6 0 -11 5 -11 10 0
6 2 10 4 10 3 0 8 -4 11 -10z m-4895 -4450 c0 -5 -2 -10 -4 -10 -3 0 -8 5 -11
10 -3 6 -1 10 4 10 6 0 11 -4 11 -10z m4633 -60 c-3 -12 -8 -19 -11 -16 -5 6
5 36 12 36 2 0 2 -9 -1 -20z m-52 -51 c-17 -17 -35 -28 -41 -24 -17 11 -11 25
11 25 13 0 18 4 13 12 -4 6 -3 8 4 4 6 -3 13 -2 17 4 3 5 11 10 16 10 6 0 -3
-14 -20 -31z m-4361 -9 c0 -5 -2 -10 -4 -10 -3 0 -8 5 -11 10 -3 6 -1 10 4 10
6 0 11 -4 11 -10z m4213 -40 c-10 -11 -19 -20 -21 -20 -1 0 2 9 8 20 6 11 15
20 20 20 6 0 2 -9 -7 -20z m-55 -15 c-3 -3 -9 2 -12 12 -6 14 -5 15 5 6 7 -7
10 -15 7 -18z"/>
<path d="M740 5471 c0 -6 4 -13 10 -16 6 -3 7 1 4 9 -7 18 -14 21 -14 7z"/>
<path d="M5465 820 c-3 -5 -1 -10 4 -10 6 0 11 5 11 10 0 6 -2 10 -4 10 -3 0
-8 -4 -11 -10z"/>
<path d="M5350 589 c0 -5 5 -7 10 -4 6 3 10 8 10 11 0 2 -4 4 -10 4 -5 0 -10
-5 -10 -11z"/>
<path d="M690 530 c0 -5 5 -10 11 -10 5 0 7 5 4 10 -3 6 -8 10 -11 10 -2 0 -4
-4 -4 -10z"/>
</g>
</svg>
